<svg width="48" height="48" viewBox="0 0 48 48" fill="none" xmlns="http://www.w3.org/2000/svg">
  <!-- Placeholder Mercury mark. Deliberately plain: it replaces another
       company's logo, which was being drawn into the receive QR codes. Swap it
       for real artwork before shipping. -->
  <path d="M0 12.0001C0 5.37264 5.37264 0 12.0001 0H36.0004C42.6278 0 48.0005 5.37264 48.0005 12.0001V36.0004C48.0005 42.6278 42.6278 48.0005 36.0004 48.0005H12.0001C5.37264 48.0005 0 42.6278 0 36.0004V12.0001Z" fill="#151F1F"/>
  <path d="M13 34V15.4C13 14.6268 13.6268 14 14.4 14H15.9C16.4092 14 16.8777 14.2765 17.1232 14.7222L24 27.2L30.8768 14.7222C31.1223 14.2765 31.5908 14 32.1 14H33.6C34.3732 14 35 14.6268 35 15.4V34C35 34.5523 34.5523 35 34 35H32.4C31.8477 35 31.4 34.5523 31.4 34V22.6L25.6 33.1C25.3752 33.5073 24.9466 33.76 24.4813 33.76H23.5187C23.0534 33.76 22.6248 33.5073 22.4 33.1L16.6 22.6V34C16.6 34.5523 16.1523 35 15.6 35H14C13.4477 35 13 34.5523 13 34Z" fill="#4ADE9B"/>
</svg>
