<svg width="402" height="410" viewBox="0 0 402 410" fill="none" xmlns="http://www.w3.org/2000/svg">
<g opacity="0.9">
<path d="M-67 268C-67 119.988 52.9877 0 201 0C349.012 0 469 119.988 469 268C469 416.012 349.012 536 201 536C52.9877 536 -67 416.012 -67 268Z" fill="#151F1F"/>
<path d="M201 0C297.599 0 382.261 51.1079 429.422 127.759C408.567 132.304 390.085 142.693 373.979 158.927C351.609 181.297 334.787 209.04 323.514 242.154C312.417 275.269 306.869 307.238 306.869 338.062C306.869 360.608 310.744 380.072 318.494 396.453C326.244 412.834 337.342 425.341 351.785 433.972C365.56 442.203 381.819 446.506 400.561 446.887C351.494 501.587 280.266 536 201 536C119.606 536 46.6874 499.715 -2.46387 442.438C7.58063 440.145 16.9272 436.971 25.5752 432.915C45.4792 423.58 60.7157 410.632 71.2842 394.075C81.8525 377.342 87.1367 358.054 87.1367 336.213C87.1367 314.9 81.5881 297.99 70.4912 285.484C59.5705 272.978 42.3964 262.674 18.9697 254.571L-2.69531 246.646C-14.1443 242.418 -22.1586 238.279 -26.7383 234.228C-31.1418 230.176 -33.3437 224.892 -33.3438 218.375C-33.3438 209.568 -29.4688 202.523 -21.7188 197.238C-13.9685 191.954 -2.07866 189.312 13.9502 189.312C28.0414 189.312 43.1897 191.513 59.3945 195.917C72.9981 199.614 75.1671 201.265 89.9629 209.016L105.022 145.869C86.682 138.405 79.2182 135.917 64.1504 131.713C44.5988 127.309 25.3112 125.108 6.28809 125.108C-5.77173 125.108 -17.0113 125.995 -27.4297 127.771C19.7296 51.1129 104.396 3.8213e-06 201 0ZM127.733 145.869L114.378 201.729H145.026L111.472 336.213C108.125 349.776 106.451 362.281 106.451 373.73C106.451 395.748 113.233 412.217 126.796 423.138C140.359 434.058 160.967 439.52 188.621 439.52H259.43L277.925 366.597H224.818C216.188 366.597 209.759 365.1 205.531 362.105C201.48 359.111 199.454 354.179 199.454 347.31C199.454 342.554 200.158 337.622 201.567 332.514L234.065 201.729H318.613L336.052 133.033H251.504L262.336 88.6455H256.788L127.733 145.869ZM-64.1748 307.054C-60.6005 308.533 -56.8408 309.974 -52.8955 311.377L-31.2305 319.304C-19.2529 323.707 -10.8857 328.199 -6.12988 332.778C-1.37424 337.358 1.0038 342.818 1.00391 349.159C1.00391 359.023 -3.39997 366.862 -12.207 372.675C-19.2333 377.407 -29.1781 380.211 -42.041 381.091C-52.7993 358.01 -60.366 333.142 -64.1748 307.054ZM460.535 200.917C466.061 222.357 469 244.835 469 268C469 305.436 461.323 341.079 447.459 373.441C432.845 373.081 421.562 368.335 413.61 359.199C405.508 349.511 401.456 335.773 401.456 317.982C401.456 302.834 404.187 285.925 409.647 267.254C415.284 248.407 423.739 232.29 435.012 218.903C442.447 209.958 450.955 203.962 460.535 200.917Z" fill="#59FFD0"/>
</g>
</svg>
